{"accessors" : [{"bufferView" : 0, "byteOffset" : 0, "componentType" : 5125, "count" : 68226, "type" : "SCALAR", "max" : [68225], "min" : [0]}, {"bufferView" : 1, "byteOffset" : 0, "componentType" : 5126, "count" : 68226, "type" : "VEC3", "max" : [51.71900177001953, 22.084999084472656, 48.801998138427734], "min" : [-21.023000717163086, -21.20599937438965, -19], "name" : "POSITION"}, {"bufferView" : 1, "byteOffset" : 12, "componentType" : 5126, "count" : 68226, "type" : "VEC3", "max" : [0.9997857213020325, 0.999733567237854, 0.9999927282333374], "min" : [-0.9999787211418152, -1.000002384185791, -0.9999048709869385], "name" : "NORMAL"}], "asset" : {"generator" : "Aspose.3D 21.11", "version" : "2.0"}, "buffers" : [{"uri" : "data:application/octet-stream;base64,", "byteLength" : 1910336}], "bufferViews" : [{"buffer" : 0, "byteOffset" : 0, "byteLength" : 272904, "target" : 34963}, {"buffer" : 0, "byteOffset" : 272908, "byteLength" : 1637424, "byteStride" : 24, "target" : 34962}], "meshes" : [{"primitives" : [{"attributes" : {"POSITION" : 1, "NORMAL" : 2}, "indices" : 0, "mode" : 4}], "name" : ""}], "nodes" : [{"mesh" : 0, "name" : ""}], "scene" : 0, "scenes" : [{"nodes" : [0]}]}