{"accessors" : [{"bufferView" : 0, "byteOffset" : 0, "componentType" : 5125, "count" : 68742, "type" : "SCALAR", "max" : [68741], "min" : [0]}, {"bufferView" : 1, "byteOffset" : 0, "componentType" : 5126, "count" : 68742, "type" : "VEC3", "max" : [94.39520263671875, -50.87120056152344, -439.9534912109375], "min" : [-52.229698181152344, -135.41180419921875, -550.5985107421875], "name" : "POSITION"}, {"bufferView" : 1, "byteOffset" : 12, "componentType" : 5126, "count" : 68742, "type" : "VEC3", "max" : [1.0000039339065552, 0.9998566508293152, 0.9999895095825195], "min" : [-0.9999711513519287, -1.0000044107437134, -0.9999777674674988], "name" : "NORMAL"}], "asset" : {"generator" : "Aspose.3D 21.11", "version" : "2.0"}, "buffers" : [{"uri" : "data:application/octet-stream;base64,", "byteLength" : 1924784}], "bufferViews" : [{"buffer" : 0, "byteOffset" : 0, "byteLength" : 274968, "target" : 34963}, {"buffer" : 0, "byteOffset" : 274972, "byteLength" : 1649808, "byteStride" : 24, "target" : 34962}], "meshes" : [{"primitives" : [{"attributes" : {"POSITION" : 1, "NORMAL" : 2}, "indices" : 0, "mode" : 4}], "name" : ""}], "nodes" : [{"mesh" : 0, "name" : ""}], "scene" : 0, "scenes" : [{"nodes" : [0]}]}